<svg viewBox="0 0 500 500" xmlns="http://www.w3.org/2000/svg" xmlns:bx="https://boxy-svg.com">
  <defs>
    <linearGradient gradientUnits="userSpaceOnUse" x1="250" y1="0" x2="250" y2="500" id="gradient-0">
      <stop offset="0" style="stop-color: rgb(30, 37, 58);"></stop>
      <stop offset="1" style="stop-color: rgb(15, 21, 29);"></stop>
    </linearGradient>
    <linearGradient gradientUnits="userSpaceOnUse" x1="250" y1="57.143" x2="250" y2="442.858" id="gradient-1">
      <stop offset="0" style="stop-color: rgb(46, 68, 93);"></stop>
      <stop offset="1" style="stop-color: rgb(24, 36, 54);"></stop>
    </linearGradient>
    <filter id="drop-shadow-filter-0" color-interpolation-filters="sRGB" x="-50%" y="-50%" width="200%" height="200%" bx:preset="drop-shadow 1 0 0 6 0.7 #ffdc2e">
      <feGaussianBlur in="SourceAlpha" stdDeviation="6"></feGaussianBlur>
      <feOffset dx="0" dy="0"></feOffset>
      <feComponentTransfer result="offsetblur">
        <feFuncA id="spread-ctrl" type="linear" slope="1.4"></feFuncA>
      </feComponentTransfer>
      <feFlood flood-color="#ffdc2e"></feFlood>
      <feComposite in2="offsetblur" operator="in"></feComposite>
      <feMerge>
        <feMergeNode></feMergeNode>
        <feMergeNode in="SourceGraphic"></feMergeNode>
      </feMerge>
    </filter>
    <filter id="drop-shadow-filter-1" color-interpolation-filters="sRGB" x="-50%" y="-50%" width="200%" height="200%" bx:preset="drop-shadow 1 0 0 12 0.71 #ffdc2e">
      <feGaussianBlur in="SourceAlpha" stdDeviation="12"></feGaussianBlur>
      <feOffset dx="0" dy="0"></feOffset>
      <feComponentTransfer result="offsetblur">
        <feFuncA id="spread-ctrl" type="linear" slope="1.42"></feFuncA>
      </feComponentTransfer>
      <feFlood flood-color="#ffdc2e"></feFlood>
      <feComposite in2="offsetblur" operator="in"></feComposite>
      <feMerge>
        <feMergeNode></feMergeNode>
        <feMergeNode in="SourceGraphic"></feMergeNode>
      </feMerge>
    </filter>
  </defs>
  <rect style="stroke-width: 8px; stroke-linecap: round; stroke-linejoin: round; fill: url(#gradient-0);" x="0" y="0" width="500" height="500" rx="100" ry="100"></rect>
  <path d="M 271.428 57.143 L 271.428 207.143 L 400 207.143 L 228.571 442.858 L 228.571 292.858 L 100 292.858 L 271.428 57.143" style="stroke-linecap: round; stroke-linejoin: round; stroke-width: 24px; fill: none; stroke: url(#gradient-1);"></path>
  <path d="M 271.012 174.924 C 268.239 168.667 266.396 163.499 265.484 159.421 C 263.602 151.007 261.651 142.725 259.635 134.577 C 257.021 123.99 257.121 113.992 264.361 106.274 C 271.668 98.478 281.421 95.564 291.775 99.056 C 301.731 102.423 310.024 106.163 316.652 110.277 C 334.78 121.532 348.251 137.513 357.066 158.22 C 358.148 160.756 359.669 165.304 361.626 171.866 C 361.749 172.28 362.1 172.588 362.527 172.655 C 372.261 174.161 381.544 176.97 390.374 181.085 C 390.76 181.263 409.77 192.65 412.649 195.542 C 412.964 195.858 423.918 204.566 429.086 208.554 C 454.942 228.527 457.333 265.749 433.412 288.47 C 423.774 297.627 412.219 302.231 398.748 302.282 C 377.136 302.364 355.42 302.371 333.601 302.304 C 333.031 302.305 332.488 302.529 332.088 302.927 L 311.103 323.912 C 310.717 324.291 310.795 324.487 311.337 324.502 C 317.645 324.68 324.234 324.691 331.099 324.535 C 345.634 324.202 357.355 324.446 367.731 334.222 C 371.565 337.833 374.456 342.9 376.406 349.424 C 381.555 366.662 370.612 385.601 353.33 390.138 C 349.904 391.043 344.908 391.466 338.338 391.406 C 315.177 391.214 291.322 391.217 266.775 391.417 C 259.153 391.477 253.11 390.902 248.647 389.693 C 234.379 385.834 224.392 377.349 214.95 366.573 C 214.777 366.383 214.493 366.345 214.283 366.484 C 201.531 374.891 189.086 383.206 176.95 391.428 C 169.106 396.744 163.368 399.925 159.735 400.97 C 143.364 405.697 126.427 398.501 119.332 382.798 C 114.138 371.288 116.585 357.075 124.603 347.478 C 127.309 344.253 131.379 340.932 136.814 337.513 C 146.69 331.316 156.424 325.066 166.018 318.763 C 166.278 318.599 166.316 318.234 166.096 318.018 C 154.174 306.074 141.711 293.563 128.707 280.485 C 121.626 273.361 116.226 265.476 112.503 256.83 C 112.401 256.587 112.136 256.454 111.881 256.519 C 105.957 257.958 99.244 258.143 91.741 257.075 C 81.673 255.645 72.887 251.33 65.384 244.13 C 57.851 236.909 53.039 228.016 50.949 217.451 C 49.481 210.007 49.717 202.668 51.66 195.431 C 55.542 180.929 66.162 167.117 80.464 161.745 C 98.021 155.147 114.313 157.197 129.341 167.895 C 129.689 168.148 130.016 168.126 130.319 167.829 C 143.317 155.114 159.738 148.138 179.586 146.899 C 191.641 146.143 202.681 147.188 212.704 150.035 C 216.874 151.214 221.011 152.915 225.004 154.75 C 240.21 161.69 255.39 168.574 270.545 175.402 C 271.115 175.662 271.271 175.502 271.012 174.924 Z M 354.553 193.629 C 348.192 193.007 343.61 190.805 342.264 184.254 C 339.692 171.703 334.977 160.574 328.118 150.869 C 317.753 136.2 302.206 125.891 284.88 119.819 C 282.333 118.929 280.02 120.976 280.542 123.623 C 282.485 133.631 284.335 142.388 286.092 149.89 C 290.221 167.462 299.189 182.557 312.994 195.175 C 316.611 198.483 317.528 202.515 315.74 207.275 C 312.938 214.737 306.621 215.994 300.038 213.036 C 274.785 201.656 250.29 190.482 226.55 179.517 C 219.329 176.188 213.157 173.608 208.033 171.777 C 202.821 169.916 195.981 168.923 187.515 168.796 C 168.557 168.515 153.325 174.98 141.819 188.191 C 122.101 210.823 123.269 243.363 144.654 264.615 C 175.007 294.753 204.886 324.632 234.29 354.251 C 239.495 359.493 243.584 362.977 246.556 364.704 C 251.509 367.574 256.784 369.013 262.382 369.019 C 278.819 369.057 305.32 369.094 341.886 369.131 C 347.713 369.131 352.74 367.829 354.809 361.635 C 357.511 353.539 351.294 346.877 343.198 346.855 C 324.345 346.804 305.323 346.804 286.136 346.855 C 280.876 346.877 276.917 346.177 273.803 341.372 C 272.594 339.504 271.949 336.709 271.868 332.987 C 271.653 323.239 271.19 315.65 270.478 310.222 C 268.268 293.556 261.277 279.539 249.504 268.174 C 237.459 256.552 221.857 252.349 206.22 248.078 C 198.447 245.965 192.631 241.172 195.422 232.32 C 197.279 226.448 202.717 223.756 208.534 225.291 C 215.325 227.093 222.438 229.202 229.875 231.619 C 264.906 243.007 289.639 272.922 292.175 310.056 C 292.192 310.304 292.47 310.44 292.677 310.303 C 292.692 310.293 292.707 310.28 292.72 310.267 C 302.232 301.155 311.751 291.922 321.279 282.564 C 323.358 280.518 325.794 280.162 328.596 280.14 C 340.555 280.067 361.667 280.078 391.931 280.173 C 403.408 280.207 411.648 279.106 419.244 271.265 C 424.901 265.431 427.759 258.617 427.818 250.825 C 427.907 237.413 421.223 229.106 409.969 221.488 C 403.608 217.181 396.946 212.506 389.984 207.464 C 378.841 199.379 367.631 194.897 354.553 193.629 Z M 115.629 185.967 C 115.775 185.699 115.687 185.363 115.428 185.2 C 104.863 178.765 94.732 178.602 85.035 184.71 C 69.643 194.408 67.864 214.904 80.186 227.66 C 86.555 234.259 94.943 236.784 105.353 235.233 C 105.85 235.16 106.068 234.874 106.009 234.377 C 104.007 217.192 107.213 201.055 115.629 185.967 Z M 160.368 376.014 C 172.813 367.407 185.546 359.133 198.091 350.747 C 198.318 350.601 198.351 350.282 198.158 350.091 L 183.044 334.822 C 182.718 334.489 182.358 334.452 181.965 334.711 C 169.362 343.06 156.813 351.411 144.321 359.767 C 134.112 366.584 140.428 382.943 152.183 380.229 C 154.282 379.74 157.01 378.335 160.368 376.014 Z" style="fill: rgb(255, 244, 202); filter: url(#drop-shadow-filter-1);"></path>
  <circle cx="370.033" cy="240.036" r="9.91" style="filter: url(#drop-shadow-filter-0); fill: rgb(255, 244, 202);"></circle>
</svg>
